<?xml version="1.0" encoding="utf-8"?>
<svg xmlns="http://www.w3.org/2000/svg" xmlns:xlink="http://www.w3.org/1999/xlink" width="27" height="27" viewBox="0 0 27 27"><defs><style>.a{fill:none;}.b{clip-path:url(#a);}.c{fill:rgba(0,0,0,0);}.d{fill:#08a054;}</style><clipPath id="a"><rect class="a" width="27" height="27"/></clipPath></defs><g class="b"><rect class="c" width="27" height="27"/><path class="d" d="M13.5,27A13.5,13.5,0,1,1,27,13.5,13.515,13.515,0,0,1,13.5,27Zm0-25.8A12.3,12.3,0,1,0,25.8,13.5,12.314,12.314,0,0,0,13.5,1.2ZM11.151,19.421a.594.594,0,0,1-.226-.044.173.173,0,0,1-.035-.022.232.232,0,0,0-.024-.017l-.018-.01a.505.505,0,0,1-.121-.081L5.176,13.711a.6.6,0,0,1,.848-.85l5.126,5.112,9.825-9.8a.6.6,0,1,1,.848.85L11.574,19.246a.519.519,0,0,1-.122.082l-.016.009a.179.179,0,0,0-.024.017.164.164,0,0,1-.036.022A.589.589,0,0,1,11.151,19.421Z"/></g></svg>