<?xml version="1.0" encoding="utf-8"?>
<svg xmlns="http://www.w3.org/2000/svg" width="55.897" height="55.043" viewBox="0 0 55.897 55.043"><defs><style>.a{fill:#4d5858;}</style></defs><g transform="translate(-24.537 -24.801)"><path class="a" d="M78.439,45.655l-5.46-3.387A2.066,2.066,0,0,1,72,40.519L71.887,34.3a4.09,4.09,0,0,0-1.31-2.841,3.97,3.97,0,0,0-2.948-.874l-6.334.874A2.088,2.088,0,0,1,59.44,30.8L55.183,26.11a4.081,4.081,0,0,0-2.841-1.31A3.682,3.682,0,0,0,49.5,26.11l-4.15,4.7a1.916,1.916,0,0,1-1.856.657l-6.334-.874a3.952,3.952,0,0,0-2.948.874A3.889,3.889,0,0,0,32.9,34.3l-.111,6.224a2.107,2.107,0,0,1-.981,1.749l-5.46,3.387A4.065,4.065,0,0,0,24.6,48.283a3.55,3.55,0,0,0,.874,3.058l3.933,4.7A2.126,2.126,0,0,1,29.739,58l-2.073,6.117a4,4,0,0,0,.328,3.165,3.412,3.412,0,0,0,2.619,1.749l6.117,1.092a1.9,1.9,0,0,1,1.527,1.31l2.295,6.006a3.788,3.788,0,0,0,2.295,2.184,4,4,0,0,0,3.165-.328l5.46-3.165a2.3,2.3,0,0,1,2.073,0l5.46,3.165a3.677,3.677,0,0,0,1.856.546,5.6,5.6,0,0,0,1.31-.218,3.8,3.8,0,0,0,2.295-2.184l2.295-6.006a2.056,2.056,0,0,1,1.527-1.31L74.4,69.035a4.049,4.049,0,0,0,2.619-1.749,4,4,0,0,0,.328-3.165L75.279,58a2.114,2.114,0,0,1,.328-1.966l3.933-4.7a4.4,4.4,0,0,0,.874-3.058,5.453,5.453,0,0,0-1.975-2.628ZM78,50.134l-3.933,4.7a3.618,3.618,0,0,0-.657,3.6l2.073,6.117A2.011,2.011,0,0,1,75.27,66.3a2.137,2.137,0,0,1-1.42.981l-6.117,1.092a3.567,3.567,0,0,0-2.841,2.4L62.6,76.782a2.177,2.177,0,0,1-1.2,1.2,2.417,2.417,0,0,1-1.749-.111l-5.46-3.165a3.739,3.739,0,0,0-3.711,0l-5.46,3.165a1.981,1.981,0,0,1-1.749.111,2.177,2.177,0,0,1-1.2-1.2l-2.295-6.006a3.742,3.742,0,0,0-2.841-2.4l-6.117-1.092a2.151,2.151,0,0,1-1.42-.981,2.385,2.385,0,0,1-.218-1.749l2.073-6.117a3.89,3.89,0,0,0-.657-3.6l-3.907-4.7a2.2,2.2,0,0,1-.435-1.638,2.151,2.151,0,0,1,.981-1.42l5.46-3.387a3.666,3.666,0,0,0,1.749-3.165l.111-6.224a1.9,1.9,0,0,1,.764-1.527,2.014,2.014,0,0,1,1.31-.546h.328l6.334.874a3.671,3.671,0,0,0,3.276-1.2l4.15-4.7a2.111,2.111,0,0,1,3.058,0l4.15,4.7a3.509,3.509,0,0,0,3.276,1.2l6.334-.874a2.217,2.217,0,0,1,1.638.435,2.293,2.293,0,0,1,.764,1.527l.111,6.224a3.8,3.8,0,0,0,1.749,3.165l5.46,3.387a2.137,2.137,0,0,1,.981,1.42A1.477,1.477,0,0,1,78,50.134Z"/><path class="a" d="M60.9,42.63,46.811,58.681,41.023,52.24a.854.854,0,1,0-1.314,1.092l6.441,7.1a.782.782,0,0,0,.657.328.96.96,0,0,0,.657-.328L62.094,43.616a.779.779,0,0,0-.111-1.2c-.213-.222-.759-.111-1.083.218Z" transform="translate(1.382 1.61)"/></g></svg>