<?xml version="1.0" encoding="utf-8"?>
<svg xmlns="http://www.w3.org/2000/svg" width="42" height="60" viewBox="0 0 42 60"><defs><style>.a{fill:#4d5858;}</style></defs><path class="a" d="M29,26a1,1,0,0,1,1-1h6.094a5.988,5.988,0,0,1,11.812,0H70a1,1,0,0,1,0,2H47.906a5.988,5.988,0,0,1-11.812,0H30a1,1,0,0,1-1-1Zm0,24a1,1,0,0,1,1-1H52.094a5.988,5.988,0,0,1,11.812,0H70a1,1,0,0,1,0,2H63.906a5.988,5.988,0,0,1-11.812,0H30a1,1,0,0,1-1-1Zm0,24a1,1,0,0,1,1-1H41.094a5.988,5.988,0,0,1,11.812,0H70a1,1,0,0,1,0,2H52.906a5.988,5.988,0,0,1-11.812,0H30a1,1,0,0,1-1-1Zm14,0a4,4,0,1,0,4-4A3.983,3.983,0,0,0,43,74ZM38,26a4,4,0,1,0,4-4A3.983,3.983,0,0,0,38,26ZM54,50a4,4,0,1,0,4-4A3.983,3.983,0,0,0,54,50Z" transform="translate(-29 -20)"/></svg>