<svg xmlns="http://www.w3.org/2000/svg" width="24.145" height="20.695" viewBox="0 0 24.145 20.695"><defs><style>.a{fill:#1ca0f2;}</style></defs><path class="a" d="M23.479.383a9.581,9.581,0,0,1-3.148,1.266A4.826,4.826,0,0,0,16.716,0a5.1,5.1,0,0,0-4.952,5.224,5.468,5.468,0,0,0,.128,1.19A13.83,13.83,0,0,1,1.681.954a5.438,5.438,0,0,0-.67,2.63,5.3,5.3,0,0,0,2.2,4.348A4.762,4.762,0,0,1,.969,7.28v.064a5.164,5.164,0,0,0,3.976,5.123,4.6,4.6,0,0,1-1.305.184,4.7,4.7,0,0,1-.932-.093,5,5,0,0,0,4.627,3.626A9.607,9.607,0,0,1,0,18.35,13.517,13.517,0,0,0,7.594,20.7c9.112,0,14.094-7.96,14.094-14.864,0-.227,0-.454-.012-.677a10.339,10.339,0,0,0,2.47-2.7,9.5,9.5,0,0,1-2.844.822A5.2,5.2,0,0,0,23.479.383"/></svg>