<svg xmlns="http://www.w3.org/2000/svg" xmlns:xlink="http://www.w3.org/1999/xlink" width="150" height="150" viewBox="0 0 150 150">
  <defs>
    <clipPath id="clip-icon-documents">
      <rect width="150" height="150"/>
    </clipPath>
  </defs>
  <g id="icon-documents" clip-path="url(#clip-icon-documents)">
    <rect width="150" height="150" fill="#fff"/>
    <rect id="Rectangle_8" data-name="Rectangle 8" width="150" height="150" fill="#fff"/>
    <g id="Group_55236" data-name="Group 55236" transform="translate(17.969 117.007)">
      <path id="Path_10914" data-name="Path 10914" d="M92.875-100.895H35.125A14.348,14.348,0,0,0,20.687-86.457,14.348,14.348,0,0,0,6.25-72.02V2.229A14.348,14.348,0,0,0,20.687,16.667h57.75A14.348,14.348,0,0,0,92.875,2.229a14.348,14.348,0,0,0,14.437-14.437V-86.457A14.351,14.351,0,0,0,92.875-100.895ZM88.751.167c0,5.775-4.539,12.376-10.314,12.376H20.687A10.214,10.214,0,0,1,10.374,2.229V-72.019A10.214,10.214,0,0,1,20.687-82.333h57.75A10.214,10.214,0,0,1,88.751-72.019ZM103.188-12.2A10.214,10.214,0,0,1,92.875-1.89V-72.015A14.348,14.348,0,0,0,78.437-86.453H24.811A10.214,10.214,0,0,1,35.125-96.767h57.75a10.214,10.214,0,0,1,10.314,10.314Z" transform="translate(0 0)" fill="#29a1da"/>
      <path id="Path_10915" data-name="Path 10915" d="M72.1-70.535H22.6a1.949,1.949,0,0,0-2.062,2.062A1.949,1.949,0,0,0,22.6-66.411H72.1a1.949,1.949,0,0,0,2.062-2.062A1.949,1.949,0,0,0,72.1-70.535Z" transform="translate(2.215 4.706)" fill="#29a1da"/>
      <path id="Path_10916" data-name="Path 10916" d="M72.1-58.035H22.6a1.949,1.949,0,0,0-2.062,2.062A1.949,1.949,0,0,0,22.6-53.911H72.1a1.949,1.949,0,0,0,2.062-2.062A1.949,1.949,0,0,0,72.1-58.035Z" transform="translate(2.215 6.643)" fill="#29a1da"/>
      <path id="Path_10917" data-name="Path 10917" d="M72.1-45.535H22.6a1.949,1.949,0,0,0-2.062,2.062A1.949,1.949,0,0,0,22.6-41.411H72.1a1.949,1.949,0,0,0,2.062-2.062A1.949,1.949,0,0,0,72.1-45.535Z" transform="translate(2.215 8.58)" fill="#29a1da"/>
      <path id="Path_10918" data-name="Path 10918" d="M72.1-33.035H22.6a1.949,1.949,0,0,0-2.062,2.062A1.949,1.949,0,0,0,22.6-28.911H72.1a1.949,1.949,0,0,0,2.062-2.062A1.949,1.949,0,0,0,72.1-33.035Z" transform="translate(2.215 10.518)" fill="#29a1da"/>
      <path id="Path_10919" data-name="Path 10919" d="M72.1-20.535H22.6a1.949,1.949,0,0,0-2.062,2.062A1.949,1.949,0,0,0,22.6-16.411H72.1a1.949,1.949,0,0,0,2.062-2.062A1.949,1.949,0,0,0,72.1-20.535Z" transform="translate(2.215 12.455)" fill="#29a1da"/>
    </g>
  </g>
</svg>
