<svg xmlns="http://www.w3.org/2000/svg" xmlns:xlink="http://www.w3.org/1999/xlink" width="150" height="150" viewBox="0 0 150 150">
  <defs>
    <clipPath id="clip-icon-approve">
      <rect width="150" height="150"/>
    </clipPath>
  </defs>
  <g id="icon-approve" clip-path="url(#clip-icon-approve)">
    <rect width="150" height="150" fill="#fff"/>
    <rect id="Rectangle_9" data-name="Rectangle 9" width="150" height="150" fill="#fff"/>
    <g id="Group_55237" data-name="Group 55237" transform="translate(28.745 120.745)">
      <path id="Path_10920" data-name="Path 10920" d="M44.637-61.436H40.114a6.783,6.783,0,0,1-6.782-6.782A6.783,6.783,0,0,1,40.114-75h4.523a6.78,6.78,0,0,1,6.782,6.782,2.258,2.258,0,0,1-2.259,2.259A2.259,2.259,0,0,1,46.9-68.218a2.262,2.262,0,0,0-.661-1.6,2.262,2.262,0,0,0-1.6-.661H40.114a2.258,2.258,0,0,0-2.259,2.259,2.258,2.258,0,0,0,2.259,2.259h4.523A2.259,2.259,0,0,1,46.9-63.7a2.258,2.258,0,0,1-2.259,2.259Z" transform="translate(2.837 2.128)" fill="#29a1da"/>
      <path id="Path_10921" data-name="Path 10921" d="M44.637-53.1H40.114a6.783,6.783,0,0,1-6.782-6.782A2.262,2.262,0,0,1,35.6-62.145a2.261,2.261,0,0,1,2.259,2.259,2.255,2.255,0,0,0,.661,1.6,2.266,2.266,0,0,0,1.6.665h4.523A2.259,2.259,0,0,0,46.9-59.886a2.258,2.258,0,0,0-2.259-2.259H40.114A2.261,2.261,0,0,1,37.855-64.4a2.262,2.262,0,0,1,2.259-2.263h4.523a6.783,6.783,0,0,1,6.782,6.782A6.78,6.78,0,0,1,44.637-53.1Z" transform="translate(2.837 2.837)" fill="#29a1da"/>
      <path id="Path_10922" data-name="Path 10922" d="M41.846-70.123a2.263,2.263,0,0,1-2.263-2.263V-76.9a2.263,2.263,0,0,1,2.263-2.263A2.262,2.262,0,0,1,44.1-76.9v4.518a2.255,2.255,0,0,1-.661,1.6,2.266,2.266,0,0,1-1.6.665Z" transform="translate(3.369 1.773)" fill="#29a1da"/>
      <path id="Path_10923" data-name="Path 10923" d="M41.846-49.291a2.262,2.262,0,0,1-2.263-2.259v-4.523a2.259,2.259,0,0,1,2.263-2.259A2.258,2.258,0,0,1,44.1-56.073v4.523a2.262,2.262,0,0,1-.661,1.6,2.262,2.262,0,0,1-1.6.661Z" transform="translate(3.369 3.546)" fill="#29a1da"/>
      <path id="Path_10924" data-name="Path 10924" d="M43.618-37.768A24.882,24.882,0,0,1,26.032-45.05,24.864,24.864,0,0,1,18.75-62.632a24.882,24.882,0,0,1,7.282-17.586A24.881,24.881,0,0,1,43.618-87.5,24.864,24.864,0,0,1,61.2-80.218a24.881,24.881,0,0,1,7.282,17.586,2.258,2.258,0,0,1-2.259,2.259,2.258,2.258,0,0,1-2.259-2.259A20.348,20.348,0,0,0,58-77.018a20.33,20.33,0,0,0-14.386-5.96,20.33,20.33,0,0,0-14.386,5.96,20.33,20.33,0,0,0-5.96,14.386,20.33,20.33,0,0,0,5.96,14.386,20.347,20.347,0,0,0,14.386,5.96,2.258,2.258,0,0,1,2.259,2.259,2.258,2.258,0,0,1-2.259,2.259Z" transform="translate(1.596 1.064)" fill="#29a1da"/>
      <path id="Path_10925" data-name="Path 10925" d="M76.6,4.255H56.25V-.268H75.668l5.451-5.447v-21.68H76.6a2.224,2.224,0,0,1-1.242-.381L68.572-32.3a2.26,2.26,0,0,1-1.017-1.878v-9.041a2.259,2.259,0,0,0-2.263-2.259,2.258,2.258,0,0,0-2.259,2.259v13.564H58.51V-43.218A6.783,6.783,0,0,1,65.292-50a6.78,6.78,0,0,1,6.782,6.782v7.82l5.2,3.484h6.1a2.262,2.262,0,0,1,1.6.661,2.262,2.262,0,0,1,.661,1.6V-4.786a2.264,2.264,0,0,1-.653,1.6L78.2,3.6a2.26,2.26,0,0,1-1.606.657Z" transform="translate(4.787 4.255)" fill="#29a1da"/>
      <path id="Path_10926" data-name="Path 10926" d="M57.491-23.936H48.45a6.78,6.78,0,0,1-6.782-6.782A6.78,6.78,0,0,1,48.45-37.5h9.041a6.78,6.78,0,0,1,6.782,6.782A6.78,6.78,0,0,1,57.491-23.936ZM48.45-32.977a2.259,2.259,0,0,0-2.263,2.259,2.259,2.259,0,0,0,2.263,2.259h9.041a2.256,2.256,0,0,0,2.259-2.259,2.256,2.256,0,0,0-2.259-2.259Z" transform="translate(3.546 5.319)" fill="#29a1da"/>
      <path id="Path_10927" data-name="Path 10927" d="M57.491-15.6H48.45a6.78,6.78,0,0,1-6.782-6.782,6.783,6.783,0,0,1,6.782-6.782h9.041a6.783,6.783,0,0,1,6.782,6.782A6.78,6.78,0,0,1,57.491-15.6ZM48.45-24.645a2.262,2.262,0,0,0-2.263,2.259,2.263,2.263,0,0,0,2.263,2.263h9.041a2.259,2.259,0,0,0,2.259-2.263,2.258,2.258,0,0,0-2.259-2.259Z" transform="translate(3.546 6.028)" fill="#29a1da"/>
      <path id="Path_10928" data-name="Path 10928" d="M57.491-7.268H48.45a6.783,6.783,0,0,1-6.782-6.782,6.78,6.78,0,0,1,6.782-6.782h9.041a6.78,6.78,0,0,1,6.782,6.782A6.783,6.783,0,0,1,57.491-7.268ZM48.45-16.309v0a2.263,2.263,0,0,0-2.263,2.263,2.262,2.262,0,0,0,2.263,2.259h9.041A2.258,2.258,0,0,0,59.75-14.05a2.259,2.259,0,0,0-2.259-2.263Z" transform="translate(3.546 6.737)" fill="#29a1da"/>
      <path id="Path_10929" data-name="Path 10929" d="M57.491,1.064H48.45a6.78,6.78,0,0,1-6.782-6.782A6.78,6.78,0,0,1,48.45-12.5h9.041a6.78,6.78,0,0,1,6.782,6.782A6.78,6.78,0,0,1,57.491,1.064ZM48.45-7.977a2.259,2.259,0,0,0-2.263,2.259A2.259,2.259,0,0,0,48.45-3.459h9.041A2.256,2.256,0,0,0,59.75-5.718a2.256,2.256,0,0,0-2.259-2.259Z" transform="translate(3.546 7.446)" fill="#29a1da"/>
      <path id="Path_10930" data-name="Path 10930" d="M76.418-13.164c-14.31,0-18.086-11.822-18.086-18.086h4.523c0,1.378.475,13.564,13.564,13.564Z" transform="translate(4.964 5.851)" fill="#29a1da"/>
      <path id="Path_10931" data-name="Path 10931" d="M99.514,3.191H81.427A2.258,2.258,0,0,1,79.168.932V-35.241A2.258,2.258,0,0,1,81.427-37.5H99.514a2.262,2.262,0,0,1,1.6.661,2.262,2.262,0,0,1,.661,1.6V.932a2.258,2.258,0,0,1-2.259,2.259ZM83.691-1.331H97.254l0-31.646H83.686Z" transform="translate(6.737 5.319)" fill="#29a1da"/>
      <path id="Path_10932" data-name="Path 10932" d="M87.5-24.645h4.523v-4.523H87.5Z" transform="translate(7.446 6.028)" fill="#29a1da"/>
      <path id="Path_10933" data-name="Path 10933" d="M38.432,8.51H6.782A6.78,6.78,0,0,1,0,1.728V-79.654a2.26,2.26,0,0,1,.657-1.606L18.743-99.347l0,0A2.26,2.26,0,0,1,20.346-100H79.124a6.783,6.783,0,0,1,6.782,6.782V-34.44a2.262,2.262,0,0,1-2.263,2.259,2.261,2.261,0,0,1-2.259-2.259V-93.218a2.262,2.262,0,0,0-.661-1.6,2.262,2.262,0,0,0-1.6-.661H21.275L4.523-78.726V1.729A2.258,2.258,0,0,0,6.782,3.989h31.65a2.261,2.261,0,0,1,0,4.523Z" transform="translate(0 0)" fill="#29a1da"/>
      <path id="Path_10934" data-name="Path 10934" d="M20.346-77.4H2.259A2.258,2.258,0,0,1,0-79.654a2.258,2.258,0,0,1,2.259-2.259H18.086V-97.741A2.258,2.258,0,0,1,20.346-100,2.258,2.258,0,0,1,22.6-97.741v18.086a2.262,2.262,0,0,1-.661,1.6,2.262,2.262,0,0,1-1.6.661Z" transform="translate(0 0)" fill="#29a1da"/>
    </g>
  </g>
</svg>
