<svg xmlns="http://www.w3.org/2000/svg" xmlns:xlink="http://www.w3.org/1999/xlink" width="150" height="150" viewBox="0 0 150 150">
  <defs>
    <clipPath id="clip-icon-review">
      <rect width="150" height="150"/>
    </clipPath>
  </defs>
  <g id="icon-review" clip-path="url(#clip-icon-review)">
    <rect width="150" height="150" fill="#fff"/>
    <rect id="Rectangle_10" data-name="Rectangle 10" width="150" height="150" fill="#fff"/>
    <g id="Group_55235" data-name="Group 55235" transform="translate(21.247 112.394)">
      <path id="Path_10913" data-name="Path 10913" d="M53.9-94a10.349,10.349,0,0,0-9.533,6.546H32.948a2.617,2.617,0,0,0-2.618,2.618v3.928H19.855A7.9,7.9,0,0,0,12-73.052V13.356c0,4.306,2.574,7.856,6.88,7.856H77.461a2.619,2.619,0,1,0,0-5.237H18.88a2.554,2.554,0,0,1-2.618-2.618V-73.053c0-1.5,1.12-3.593,2.618-3.593H30.329v4.9H23.783a1.958,1.958,0,0,0-.245,0,2.619,2.619,0,0,0-2.373,2.618V9.428a2.617,2.617,0,0,0,2.618,2.618H84.007a2.617,2.617,0,0,0,2.618-2.618V-6.363c.435.026.869.082,1.309.082a23.292,23.292,0,0,0,2.618-.164v19.8a2.554,2.554,0,0,1-2.618,2.618,2.619,2.619,0,1,0,0,5.237,7.9,7.9,0,0,0,7.855-7.855V-7.672c.3-.107.609-.169.9-.286L106.632,8.2a2.645,2.645,0,0,0,4.5-2.782l-9.778-15.915A23.532,23.532,0,0,0,111.5-29.846,23.594,23.594,0,0,0,95.79-52.021V-73.05a7.9,7.9,0,0,0-7.855-7.855H77.461v-3.928a2.617,2.617,0,0,0-2.618-2.618H63.428A10.349,10.349,0,0,0,53.895-94Zm0,5.237a5.21,5.21,0,0,1,5.155,4.378,2.617,2.617,0,0,0,2.578,2.168h10.6v10.474H35.566V-82.217h10.6a2.617,2.617,0,0,0,2.578-2.168A5.21,5.21,0,0,1,53.9-88.763ZM77.461-76.646H88.91c1.5,0,2.618,2.095,2.618,3.593v19.8c-.859-.1-2.708-.164-3.593-.164-.44,0-.875.056-1.309.082V-69.124a2.617,2.617,0,0,0-2.618-2.618H77.461ZM25.427-67.481H81.389v15.008a23.609,23.609,0,0,0-17.02,22.625A23.61,23.61,0,0,0,81.389-7.224V7.785H25.427Zm8.585,14.067a2.6,2.6,0,0,0-1.815.854,2.612,2.612,0,0,0-.68,1.887,2.6,2.6,0,0,0,.854,1.815,2.612,2.612,0,0,0,1.887.68h28.8a2.627,2.627,0,0,0,1.877-.752,2.64,2.64,0,0,0,.777-1.867,2.64,2.64,0,0,0-.777-1.867,2.627,2.627,0,0,0-1.877-.752h-28.8a1.965,1.965,0,0,0-.245,0Zm53.924,5.237a18.292,18.292,0,0,1,18.329,18.329A18.292,18.292,0,0,1,87.935-11.519,18.292,18.292,0,0,1,69.606-29.848,18.292,18.292,0,0,1,87.935-48.177ZM34.011-40.322a2.6,2.6,0,0,0-1.815.854,2.612,2.612,0,0,0-.68,1.887,2.6,2.6,0,0,0,.854,1.815,2.612,2.612,0,0,0,1.887.68H55.2a2.627,2.627,0,0,0,1.877-.752,2.641,2.641,0,0,0,.777-1.867,2.64,2.64,0,0,0-.777-1.867,2.627,2.627,0,0,0-1.877-.752H34.257a1.964,1.964,0,0,0-.245,0Zm0,13.092a2.6,2.6,0,0,0-1.815.854,2.612,2.612,0,0,0-.68,1.887,2.6,2.6,0,0,0,.854,1.815,2.612,2.612,0,0,0,1.887.68H55.2a2.627,2.627,0,0,0,1.877-.752,2.641,2.641,0,0,0,.777-1.867,2.64,2.64,0,0,0-.777-1.867A2.627,2.627,0,0,0,55.2-27.23H34.257a1.963,1.963,0,0,0-.245,0Zm0,13.092a2.6,2.6,0,0,0-1.815.854,2.612,2.612,0,0,0-.68,1.887,2.6,2.6,0,0,0,.854,1.815,2.612,2.612,0,0,0,1.887.68h28.8a2.627,2.627,0,0,0,1.877-.752,2.641,2.641,0,0,0,.777-1.867,2.64,2.64,0,0,0-.777-1.867,2.627,2.627,0,0,0-1.877-.752h-28.8a1.963,1.963,0,0,0-.245,0Z" transform="translate(0 0)" fill="#29a1da"/>
    </g>
  </g>
</svg>
