<svg xmlns="http://www.w3.org/2000/svg" xmlns:xlink="http://www.w3.org/1999/xlink" width="150" height="150" viewBox="0 0 150 150">
  <defs>
    <clipPath id="clip-icon-apply">
      <rect width="150" height="150"/>
    </clipPath>
  </defs>
  <g id="icon-apply" clip-path="url(#clip-icon-apply)">
    <rect width="150" height="150" fill="#fff"/>
    <rect id="Rectangle_7" data-name="Rectangle 7" width="150" height="150" fill="#fff"/>
    <g id="Group_55234" data-name="Group 55234" transform="translate(11.141 110.781)">
      <path id="Path_10912" data-name="Path 10912" d="M92.328-8.836c.034-.038.071-.071.105-.109a53.311,53.311,0,0,0,15.082-37.3A53.3,53.3,0,0,0,92.407-83.562c0-.008-.013-.013-.017-.021-.206-.214-.412-.424-.622-.634-.1-.1-.214-.206-.319-.311-.084-.084-.168-.164-.256-.248-.248-.239-.491-.475-.743-.71l-.361-.336c-.227-.21-.458-.416-.689-.617-.13-.113-.26-.231-.391-.344-.244-.214-.491-.424-.739-.63-.113-.092-.223-.189-.336-.281-.349-.29-.7-.571-1.054-.848a.128.128,0,0,0-.029-.021A53.149,53.149,0,0,0,59.866-99.6c-.059-.008-.118-.013-.176-.021-.4-.046-.811-.084-1.218-.118l-.315-.025c-.365-.029-.731-.055-1.1-.076l-.391-.025c-.357-.021-.718-.034-1.075-.046-.13,0-.256-.013-.386-.013-.479-.013-.962-.021-1.445-.021s-.966.008-1.445.021l-.386.013c-.357.013-.718.025-1.075.046l-.391.025q-.548.031-1.1.076l-.319.025c-.4.034-.811.076-1.214.118-.063.008-.122.013-.185.021a53.253,53.253,0,0,0-23.377,8.434s-.008,0-.013.008q-.592.391-1.172.794c-.021.013-.042.029-.063.042-.4.277-.79.559-1.18.848l-.008.008c-.378.281-.752.567-1.126.857-.168.13-.332.265-.5.395-.193.155-.386.307-.58.466s-.407.34-.609.512c-.151.126-.3.256-.454.386-.206.176-.407.361-.613.542-.147.134-.3.265-.445.4q-.283.258-.567.529l-.5.479c-.16.151-.315.307-.475.462-.076.076-.151.147-.227.223-.147.147-.29.3-.437.445-.092.1-.189.193-.281.29A53.3,53.3,0,0,0-.005-46.237,53.276,53.276,0,0,0,14.06-10.02c.021.025.046.05.067.071.281.307.567.613.857.911.13.134.265.269.395.4s.239.248.357.365c.063.063.13.126.2.193.181.176.357.353.538.525.147.143.294.281.445.424.2.189.4.378.6.563.139.126.277.252.42.378.206.185.416.37.626.554.151.134.307.265.462.395.2.168.391.336.592.5.223.185.449.361.676.542.13.105.26.21.395.315a53.279,53.279,0,0,0,26.964,11c.055,0,.109.013.164.017.407.046.819.084,1.231.122l.307.025c.37.029.735.055,1.1.076l.382.025c.361.021.718.034,1.079.046.126,0,.256.013.382.013.479.013.962.021,1.445.021s.966-.008,1.445-.021l.382-.013c.361-.013.722-.025,1.084-.046l.378-.025q.554-.031,1.109-.076l.3-.025c.416-.034.827-.076,1.239-.122.05,0,.1-.013.151-.017A53.238,53.238,0,0,0,87.938-4.8c.088-.071.176-.147.265-.223.269-.227.538-.454.8-.685.122-.109.244-.214.365-.323.235-.21.466-.416.7-.63L90.433-7c.239-.223.479-.454.714-.68.1-.1.2-.189.294-.286s.2-.2.3-.294c.214-.193.4-.386.584-.575ZM63.814,2.391c-.034.008-.063.013-.1.021A27.747,27.747,0,0,0,66.548-1.28c3.079-4.746,5.615-11.256,7.388-18.908a58.509,58.509,0,0,1,16.875,7.014,49.77,49.77,0,0,1-27,15.566Zm-20.067,0A49.765,49.765,0,0,1,16.7-13.187,58.346,58.346,0,0,1,33.571-20.2,75.2,75.2,0,0,0,37.065-8.94,37.8,37.8,0,0,0,43.806,2.408c-.008,0-.021,0-.029,0s-.021,0-.029-.008ZM4.095-44.217h26.7a119.212,119.212,0,0,0,1.949,20.059A62.027,62.027,0,0,0,14.112-16.33,49.333,49.333,0,0,1,4.095-44.218ZM14.112-76.153a60.911,60.911,0,0,0,16.522,7.262c-.37.416-.739.861-1.1,1.344-3.436,4.406-2.919,11.583.794,19.283H4.094A49.324,49.324,0,0,1,14.111-76.154Zm89.312,27.888H76.72a119.661,119.661,0,0,0-1.945-20.059,62.134,62.134,0,0,0,18.631-7.829,49.322,49.322,0,0,1,10.017,27.888Zm-70.7-16.8s.008-.013.013-.017a12.09,12.09,0,0,1,3.23-3.15.032.032,0,0,1,.017-.008A3.048,3.048,0,0,1,37.27-68.7a.911.911,0,0,1,.109,0,.911.911,0,0,1,.1,0,.093.093,0,0,1,.034,0,1.131,1.131,0,0,1,.118.017c.008,0,.013,0,.021,0a2.216,2.216,0,0,1,1.113.68l5.418,5.405a3.817,3.817,0,0,1,.907,4.469,7.016,7.016,0,0,1-3.079,3.335,5.164,5.164,0,0,1-2.44.693,1.977,1.977,0,0,0-.785.164,2.014,2.014,0,0,0-.979.882A2.033,2.033,0,0,0,37.858-51a61.425,61.425,0,0,0,4.229,5.981c.029.038.059.076.092.113a70.737,70.737,0,0,0,4.8,5.414l.025.025a66.709,66.709,0,0,0,11.5,9.1s.008,0,.013.008h0a1.125,1.125,0,0,0,.1.05,1.53,1.53,0,0,0,.143.076s0,0,.008,0a.176.176,0,0,1,.042.017s.008,0,.013,0a1.7,1.7,0,0,0,.189.067.015.015,0,0,1,.013,0,.488.488,0,0,0,.076.017c.059.013.113.029.172.038h.021c.029,0,.063,0,.092.008.05,0,.1.013.151.013h.042a.958.958,0,0,0,.109-.008,1.022,1.022,0,0,0,.113,0s.013,0,.017,0c.046,0,.088-.017.134-.025s.076-.013.109-.021c0,0,.008,0,.013,0,.05-.013.1-.029.147-.046a.652.652,0,0,0,.1-.034,0,0,0,0,0,0,0,1.843,1.843,0,0,0,.185-.088l.055-.025c.017-.008.029-.021.046-.029a1.91,1.91,0,0,0,.181-.118,1.912,1.912,0,0,0,.168-.147A.21.21,0,0,0,61-30.646a2.017,2.017,0,0,0,.609-1.441,6.652,6.652,0,0,1,3.62-5.309c.134-.067.273-.13.412-.189a3.792,3.792,0,0,1,3.457.109s.013,0,.017.008c.084.046.168.1.248.155,0,0,.008,0,.013.008a5.31,5.31,0,0,1,.752.622l5.414,5.414a1.846,1.846,0,0,1,.7,1.5c-.038.559-.466,2.113-3.641,4.532a6.075,6.075,0,0,1-.991.622c-.025.013-.05.017-.071.029-.134.067-.277.122-.416.181-.071.029-.139.059-.214.084-.1.038-.2.071-.307.105s-.189.059-.29.088q-.2.057-.4.1c-.071.017-.147.034-.218.046-.16.034-.328.063-.491.084-.055.008-.109.017-.164.021-.185.025-.374.042-.567.059-.042,0-.088,0-.13.008-.206.013-.412.021-.622.025H67.6c-.214,0-.428,0-.651-.013-.05,0-.1-.008-.151-.008-.21-.013-.424-.025-.638-.046-.08-.008-.164-.017-.244-.029-.189-.021-.378-.042-.571-.071-.147-.021-.3-.046-.449-.076-.13-.021-.256-.042-.391-.067a28.575,28.575,0,0,1-6.846-2.348l-.092-.038c-1.05-.5-2.108-1.075-3.163-1.7a50.87,50.87,0,0,1-4.838-3.293q-.466-.359-.932-.731l-.063-.05c-.29-.235-.584-.475-.874-.714-.046-.038-.1-.08-.143-.122-.265-.227-.533-.454-.8-.685l-.239-.214c-.235-.21-.47-.416-.7-.63-.126-.113-.248-.231-.37-.344-.193-.181-.386-.357-.575-.538-.214-.206-.428-.416-.638-.622-.1-.1-.2-.193-.3-.294a.667.667,0,0,0-.055-.055c-.286-.286-.567-.575-.848-.865-.059-.059-.113-.122-.172-.181-.265-.277-.525-.559-.781-.84a1,1,0,0,0-.092-.1c-.584-.638-1.147-1.289-1.688-1.945-.05-.063-.1-.126-.155-.189-.227-.273-.445-.55-.664-.823-.046-.055-.088-.113-.134-.168-.244-.311-.483-.622-.718-.937-.076-.1-.147-.2-.218-.3-.155-.206-.307-.416-.454-.626-.1-.139-.2-.281-.3-.424-.118-.168-.231-.332-.344-.5-.223-.323-.437-.651-.651-.974-.059-.092-.122-.185-.181-.273-.13-.206-.256-.407-.382-.613-.059-.092-.118-.189-.172-.281-.13-.214-.26-.428-.386-.647-.029-.055-.059-.1-.092-.16q-.428-.737-.819-1.474s0-.008-.008-.013a34.484,34.484,0,0,1-1.982-4.452c-1.848-5.069-1.806-9.374.1-11.806ZM38.551-36.2l.113.126c.239.265.479.529.722.794.029.029.055.059.084.088l.63.668c.076.076.147.155.223.231.239.248.483.5.727.739.319.319.638.63.962.941.042.038.08.076.122.113.307.29.613.58.92.861a.058.058,0,0,0,.017.013,59.1,59.1,0,0,0,6.3,5.044A87.043,87.043,0,0,0,36.69-25.043a112.533,112.533,0,0,1-1.743-15.595q1.644,2.243,3.6,4.439Zm33.981-3.776q-.239-.208-.479-.391c-.042-.034-.084-.059-.126-.088-.118-.088-.239-.172-.361-.252-.059-.038-.113-.071-.172-.1-.109-.067-.218-.134-.328-.2-.063-.038-.13-.067-.2-.1-.1-.055-.21-.109-.319-.16-.071-.034-.139-.063-.21-.092-.1-.046-.21-.088-.315-.13-.071-.029-.147-.055-.223-.08q-.157-.057-.315-.1l-.227-.063c-.1-.029-.214-.055-.319-.076-.076-.017-.155-.034-.231-.046-.109-.021-.214-.038-.323-.05-.08-.013-.155-.021-.235-.029-.109-.013-.218-.021-.332-.025l-.235-.013q-.17-.006-.34,0c-.08,0-.155,0-.235,0-.113,0-.231.013-.349.025-.076.008-.151.013-.231.021-.122.013-.239.034-.361.055-.071.013-.147.021-.218.038-.126.025-.252.055-.382.084-.067.017-.134.029-.2.046-.139.038-.281.08-.42.126-.055.017-.109.029-.164.05-.193.067-.391.139-.584.218-.168.067-.332.143-.5.218l-.2.1c-.092.046-.189.092-.281.143-.155.084-.311.176-.462.269h0c-.092.055-.181.118-.269.172-.063.042-.126.08-.185.122s-.143.105-.214.155-.151.1-.223.16c-.105.08-.21.164-.311.252-.034.029-.071.059-.109.088-.08.067-.16.139-.235.21-.055.05-.113.1-.168.147s-.113.113-.172.168c-.071.071-.143.139-.214.21-.05.05-.1.105-.147.155-.076.08-.147.155-.218.235-.038.042-.076.088-.113.134-.08.092-.16.181-.235.277-.029.038-.055.076-.084.109-.08.105-.164.206-.239.315-.025.034-.046.067-.071.1-.08.109-.16.223-.231.336a1,1,0,0,0-.055.088c-.076.118-.151.239-.223.357-.025.042-.046.084-.071.126-.063.109-.126.223-.189.336-.034.059-.059.122-.092.185-.046.1-.1.189-.143.286s-.088.2-.134.307c-.025.059-.05.113-.076.172a64.014,64.014,0,0,1-6.476-5.166c-.643-.584-1.281-1.184-1.907-1.793-.6-.609-1.184-1.231-1.76-1.861h24.57c-.013,1.394-.055,2.81-.126,4.217ZM44.7-48.265c-.63-.815-1.235-1.634-1.806-2.453a10.207,10.207,0,0,0,.949-.441,10.985,10.985,0,0,0,5-5.426,7.842,7.842,0,0,0-1.789-8.879l-.634-.63c2.419.2,4.872.3,7.342.3a88.143,88.143,0,0,0,17.06-1.642,115.348,115.348,0,0,1,1.848,19.169ZM73.947-72.28a75.254,75.254,0,0,0-3.494-11.265,37.72,37.72,0,0,0-6.741-11.344,49.746,49.746,0,0,1,27.1,15.595,58.463,58.463,0,0,1-16.868,7.014ZM66.7-82.024a71.046,71.046,0,0,1,3.3,10.626,84.212,84.212,0,0,1-16.238,1.55,84.2,84.2,0,0,1-11.932-.832l-.193-.193c-.021-.021-.046-.042-.067-.063-.1-.1-.193-.185-.29-.273-.008-.008-.021-.017-.029-.025l-.164-.139c-.055-.046-.109-.088-.164-.13a5.746,5.746,0,0,0-3.062-1.252C41.375-86.917,47.482-95.9,53.766-95.9c4.641,0,9.358,5.061,12.931,13.872ZM43.8-94.889a27.425,27.425,0,0,0-2.751,3.57c-3.112,4.754-5.683,11.307-7.472,19.03A58.647,58.647,0,0,1,16.7-79.295,49.723,49.723,0,0,1,43.8-94.889ZM40.814-10.461a71.142,71.142,0,0,1-3.3-10.622,84.285,84.285,0,0,1,16.241-1.55c.84,0,1.68.013,2.5.038a33.744,33.744,0,0,0,5.7,2.087s.008,0,.017,0c.164.042.323.084.487.122.088.021.172.042.26.059l.5.113c.164.034.328.067.487.1.076.013.147.029.223.042.214.038.428.076.643.109.008,0,.017,0,.025,0,.239.038.475.067.71.1l.1.013c.47.055.932.088,1.39.109.034,0,.067,0,.1,0,.206.008.407.013.609.013H67.6c.151,0,.3,0,.449-.008.118,0,.235-.008.353-.017.063,0,.126,0,.185-.008.13-.008.256-.017.382-.029.029,0,.059,0,.084-.008.143-.013.281-.029.42-.046a.053.053,0,0,0,.025,0c.067-.008.134-.013.2-.025A54.745,54.745,0,0,1,63.144-3.494c-2.041,3.146-5.33,6.9-9.391,6.9-4.645,0-9.362-5.053-12.94-13.868ZM76.921-23.586c2.1-1.987,3.238-3.969,3.368-5.909a5.864,5.864,0,0,0-1.882-4.633L76.345-36.19c.206-2.638.332-5.326.374-8.026h26.7A49.324,49.324,0,0,1,93.406-16.328a61.138,61.138,0,0,0-16.485-7.258Z" transform="translate(10.469 10.458)" fill="#29a1da"/>
    </g>
  </g>
</svg>
