<?xml version="1.0" encoding="utf-8"?>
<svg xmlns="http://www.w3.org/2000/svg" width="65" height="65" viewBox="0 0 65 65"><defs><style>.a,.b{fill:none;}.a{stroke:#29a1da;stroke-linecap:square;stroke-miterlimit:10;stroke-width:1.3px;}</style></defs><g transform="translate(-860 -615)"><g transform="translate(720.93 504.576)"><g transform="translate(152.032 132.455)"><path class="a" d="M194.59,141.257H154.055a.165.165,0,0,1-.14-.256l5.373-7.959h30.069L194.73,141A.165.165,0,0,1,194.59,141.257Z" transform="translate(-153.744 -133.042)"/><path class="a" d="M153.711,147.405l20.513,23.977,20.513-23.977a.271.271,0,0,0-.212-.446h-40.6A.271.271,0,0,0,153.711,147.405Z" transform="translate(-153.646 -138.744)"/><line class="a" y1="19.986" x2="6.538" transform="translate(21.101 11.014)"/><line class="a" x2="7.459" y2="22.805" transform="translate(12.589 8.215)"/><path class="a" d="M192.163,136.4l4.682,4.567a.886.886,0,0,0,1.279-.045l6.242-7" transform="translate(-168.65 -133.402)"/><path class="a" d="M166.8,136.528l4.534,5.088,7.891-7.7" transform="translate(-158.82 -133.402)"/></g><line class="a" x1="1.288" y1="0.916" transform="translate(149.707 128.993)"/><line class="a" x1="0.695" y1="1.42" transform="translate(155.973 122.222)"/><line class="a" x1="0.15" y1="1.574" transform="translate(164.331 120.386)"/><line class="a" y1="1.581" x2="0.021" transform="translate(172.185 120.093)"/><line class="a" y1="0.916" x2="1.288" transform="translate(193.418 128.993)"/><line class="a" y1="1.42" x2="0.695" transform="translate(187.745 122.222)"/><line class="a" y1="1.574" x2="0.15" transform="translate(179.933 120.386)"/></g><rect class="b" width="65" height="65" transform="translate(860 615)"/></g></svg>