<?xml version="1.0" encoding="utf-8"?>
<svg xmlns="http://www.w3.org/2000/svg" width="65" height="65" viewBox="0 0 65 65"><defs><style>.a{fill:#29a1da;}.b{fill:none;}</style></defs><g transform="translate(-860 -784)"><g transform="translate(-122.684 169.805)"><path class="a" d="M1036.775,624.55h-3.1v-1.6a.728.728,0,1,0-1.455,0v1.6h-5.527v-1.6a.727.727,0,1,0-1.454,0v1.6h-5.527v-1.6a.728.728,0,1,0-1.455,0v1.6h-5.528v-1.6a.727.727,0,1,0-1.454,0v1.6h-5.528v-1.6a.727.727,0,1,0-1.454,0v1.6h-5.526v-1.6a.728.728,0,1,0-1.455,0v1.6h-2.717a2.961,2.961,0,0,0-2.91,3.006V667.19a2.96,2.96,0,0,0,2.91,3.006h42.181a2.96,2.96,0,0,0,2.909-3.006V627.555A2.961,2.961,0,0,0,1036.775,624.55Zm0,44.143H994.594a1.481,1.481,0,0,1-1.455-1.5V633.165h.363a.752.752,0,0,0,0-1.5h-.363v-4.107a1.48,1.48,0,0,1,1.455-1.5h2.717v1.6a.728.728,0,1,0,1.455,0v-1.6h5.526v1.6a.727.727,0,1,0,1.454,0v-1.6h5.528v1.6a.727.727,0,1,0,1.454,0v-1.6h5.528v1.6a.728.728,0,1,0,1.455,0v-1.6h5.527v1.6a.727.727,0,1,0,1.454,0v-1.6h5.527v1.6a.728.728,0,1,0,1.455,0v-1.6h3.1a1.479,1.479,0,0,1,1.454,1.5v4.107h-.363a.752.752,0,0,0,0,1.5h.363V667.19A1.48,1.48,0,0,1,1036.775,668.693Z" transform="translate(0 0)"/><path class="a" d="M1000.247,632.126a.767.767,0,0,0-.768-.768h-2.3a.767.767,0,1,0,0,1.535h2.3A.767.767,0,0,0,1000.247,632.126Z" transform="translate(0.258 0.298)"/><path class="a" d="M1014.634,632.893h2.3a.767.767,0,0,0,0-1.535h-2.3a.767.767,0,1,0,0,1.535Z" transform="translate(-0.1 0.298)"/><path class="a" d="M1011.884,632.126a.768.768,0,0,0-.768-.768h-2.3a.767.767,0,0,0,0,1.535h2.3A.768.768,0,0,0,1011.884,632.126Z" transform="translate(-0.074 0.298)"/><path class="a" d="M1003,632.893h2.3a.767.767,0,0,0,0-1.535H1003a.767.767,0,1,0,0,1.535Z" transform="translate(-0.047 0.298)"/><path class="a" d="M1026.269,632.893h2.3a.767.767,0,0,0,0-1.535h-2.3a.767.767,0,0,0,0,1.535Z" transform="translate(-0.152 0.298)"/><path class="a" d="M1022.753,631.358h-2.3a.767.767,0,0,0,0,1.535h2.3a.767.767,0,0,0,0-1.535Z" transform="translate(-0.126 0.298)"/><path class="a" d="M1034.389,631.358h-2.3a.767.767,0,1,0,0,1.535h2.3a.767.767,0,0,0,0-1.535Z" transform="translate(-0.458 0.298)"/><path class="a" d="M1013.776,646.6h4.193a1.535,1.535,0,0,0,1.535-1.535v-4.192a1.536,1.536,0,0,0-1.535-1.535h-4.193a1.536,1.536,0,0,0-1.533,1.535v4.192A1.535,1.535,0,0,0,1013.776,646.6Zm0-5.727h4.193v4.192h-4.195Z" transform="translate(-0.188 0.505)"/><path class="a" d="M1013.776,660.6h4.193a1.535,1.535,0,0,0,1.535-1.535v-4.192a1.536,1.536,0,0,0-1.535-1.535h-4.193a1.536,1.536,0,0,0-1.533,1.535v4.192A1.535,1.535,0,0,0,1013.776,660.6Zm0-5.727h4.193v4.192h-4.195Z" transform="translate(-0.188 0.917)"/><path class="a" d="M1031.158,639.342h-4.192a1.536,1.536,0,0,0-1.534,1.535v4.192a1.535,1.535,0,0,0,1.534,1.535h4.192a1.535,1.535,0,0,0,1.535-1.535v-4.192A1.536,1.536,0,0,0,1031.158,639.342Zm-4.192,5.727v-4.192h4.192v4.192Z" transform="translate(-0.309 0.505)"/><path class="a" d="M1004.78,653.308h-4.193a1.535,1.535,0,0,0-1.534,1.534v4.192a1.536,1.536,0,0,0,1.534,1.535h4.193a1.536,1.536,0,0,0,1.534-1.535v-4.192A1.535,1.535,0,0,0,1004.78,653.308Zm-4.193,5.726v-4.192h4.193v4.192Z" transform="translate(-0.067 0.916)"/><path class="a" d="M1031.158,653.308h-4.192a1.535,1.535,0,0,0-1.534,1.534v4.192a1.536,1.536,0,0,0,1.534,1.535h4.192a1.536,1.536,0,0,0,1.535-1.535v-4.192A1.535,1.535,0,0,0,1031.158,653.308Zm-4.192,5.726v-4.192h4.192v4.192Z" transform="translate(-0.309 0.916)"/><path class="a" d="M1007.769,637.941l.931-1.786a.767.767,0,1,0-1.359-.709l-.834,1.6a6.493,6.493,0,0,0-3.082-.776h-.767a6.528,6.528,0,0,0-6.519,6.521v.766a6.527,6.527,0,0,0,6.519,6.52h.767a6.528,6.528,0,0,0,6.521-6.52v-.766A6.492,6.492,0,0,0,1007.769,637.941Zm.642,5.614a4.992,4.992,0,0,1-4.987,4.987h-.767a4.992,4.992,0,0,1-4.984-4.987v-.766a4.992,4.992,0,0,1,4.984-4.988h.767a4.967,4.967,0,0,1,2.373.6l-2.828,5.422-1.806-2.783a.767.767,0,0,0-1.287.834l2.521,3.887a.766.766,0,0,0,.643.35h.037a.763.763,0,0,0,.642-.411l3.311-6.346a4.963,4.963,0,0,1,1.38,3.434Z" transform="translate(0.244 0.304)"/></g><rect class="b" width="65" height="65" transform="translate(860 784)"/></g></svg>