<?xml version="1.0" encoding="utf-8"?>
<svg xmlns="http://www.w3.org/2000/svg" width="65" height="65" viewBox="0 0 65 65"><defs><style>.a{fill:#29a1da;}.b{fill:none;}</style></defs><g transform="translate(-1005 -784)"><path class="a" d="M87.575,306.3a7.674,7.674,0,0,0-7.391,7.914v2.415H40.059a.77.77,0,0,0-.742.795v14.644a3.21,3.21,0,0,0,1.419,2.721,11.1,11.1,0,0,0,2.958,1.308v3.3a5.382,5.382,0,0,0-4.377,5.418,5.317,5.317,0,0,0,5.121,5.485,5.252,5.252,0,0,0,5.06-4.688h21.99a5.253,5.253,0,0,0,5.06,4.688,5.317,5.317,0,0,0,5.121-5.485A5.382,5.382,0,0,0,77.29,339.4v-3.309a11.14,11.14,0,0,0,2.959-1.3,3.211,3.211,0,0,0,1.419-2.721V314.214a6.133,6.133,0,0,1,5.907-6.324.8.8,0,0,0,0-1.589ZM44.438,348.71a3.9,3.9,0,1,1,3.636-3.895A3.776,3.776,0,0,1,44.438,348.71Zm35.747-3.895a3.644,3.644,0,1,1-3.636-3.891A3.776,3.776,0,0,1,80.184,344.815ZM75.806,339.4a5.315,5.315,0,0,0-4.318,4.624H49.5A5.315,5.315,0,0,0,45.18,339.4v-2.991a12.018,12.018,0,0,0,1.693.121,11.292,11.292,0,0,0,7.27-2.572,10.182,10.182,0,0,1,12.7,0,11.446,11.446,0,0,0,8.962,2.446Zm4.378-7.33a1.586,1.586,0,0,1-.69,1.351,10.283,10.283,0,0,1-11.729-.712,11.666,11.666,0,0,0-14.544,0,10.284,10.284,0,0,1-11.729.712,1.589,1.589,0,0,1-.69-1.351V318.219H80.184Z" transform="translate(973.684 489.7)"/><rect class="b" width="65" height="65" transform="translate(1005 784)"/></g></svg>