<?xml version="1.0" encoding="utf-8"?>
<svg xmlns="http://www.w3.org/2000/svg" width="65" height="65" viewBox="0 0 65 65"><defs><style>.a{fill:#29a1da;}.b{fill:none;}</style></defs><g transform="translate(-1002 -615)"><g transform="translate(973.682 321.818)"><path class="a" d="M85.319,318.19a4.4,4.4,0,1,0-5.134,4.3v18.688a3.619,3.619,0,0,1-7.237,0v-2.238a4.98,4.98,0,0,0-9.96,0v6.607a4.218,4.218,0,0,1-8.435,0v-8.393h.825a2.8,2.8,0,0,0,2.811-2.788c0-.034-.009-.063-.01-.1a12.34,12.34,0,0,0,8.107-11.539v-.7h3.3a.727.727,0,1,0,0-1.454h-3.3v-8.089a9.154,9.154,0,0,0-1.151-4.428,2.877,2.877,0,0,0,.785-1.966,2.982,2.982,0,1,0-2.04,2.757,7.7,7.7,0,0,1,.939,3.637v8.089H62.465l-3.405-8.117a.743.743,0,0,0-.686-.448.734.734,0,0,0-.675.466L52.857,324.9l-3.407-9.038a.735.735,0,0,0-.667-.472.681.681,0,0,0-.692.436L46,320.574h-3.18v-8.089a7.725,7.725,0,0,1,.932-3.64,2.889,2.889,0,0,0,.9.155,2.909,2.909,0,1,0-2.933-2.909,2.876,2.876,0,0,0,.778,1.957,9.185,9.185,0,0,0-1.145,4.437v8.089h-3.3a.727.727,0,1,0,0,1.454h3.3v.7a12.358,12.358,0,0,0,8.106,11.555c0,.027-.008.053-.008.081a2.8,2.8,0,0,0,2.811,2.788h.825v8.393a5.684,5.684,0,0,0,11.369,0v-6.607a3.514,3.514,0,0,1,7.027,0v2.238a5.084,5.084,0,0,0,10.164.116c0-.01.006-.019.006-.029V322.488A4.376,4.376,0,0,0,85.319,318.19Zm-23.8-12.1a1.467,1.467,0,1,1,1.467,1.455A1.462,1.462,0,0,1,61.52,306.091Zm-16.869-1.454a1.455,1.455,0,1,1-1.466,1.454A1.461,1.461,0,0,1,44.651,304.637Zm-1.832,18.091v-.7h3.66a.732.732,0,0,0,.672-.436l1.559-3.536,3.449,9.148a.735.735,0,0,0,.684.473h0a.733.733,0,0,0,.684-.466l4.879-12.522,2.89,6.891a.733.733,0,0,0,.678.448H64.82v.7a10.9,10.9,0,0,1-7.067,10.158,2.814,2.814,0,0,0-2.375-1.31H52.261a2.806,2.806,0,0,0-2.384,1.328A10.923,10.923,0,0,1,42.819,322.728Zm8.1,11.636a1.34,1.34,0,0,1,1.344-1.333h3.117a1.334,1.334,0,1,1,0,2.667H52.261A1.34,1.34,0,0,1,50.917,334.364Zm30-13.264a2.91,2.91,0,1,1,2.933-2.91A2.925,2.925,0,0,1,80.919,321.1Z" transform="translate(0 0)"/><path class="a" d="M80.562,317.5a.7.7,0,1,0,.7.7A.7.7,0,0,0,80.562,317.5Z" transform="translate(0.363 -0.003)"/></g><rect class="b" width="65" height="65" transform="translate(1002 615)"/></g></svg>