<?xml version="1.0" encoding="utf-8"?>
<svg xmlns="http://www.w3.org/2000/svg" width="65" height="65" viewBox="0 0 65 65"><defs><style>.a{fill:#29a1da;}.b{fill:none;}</style></defs><g transform="translate(-1145 -615)"><g transform="translate(1146.38 214.427)"><path class="a" d="M45.845,433.618v-.5a2.79,2.79,0,0,0,2.248-2.656,2.676,2.676,0,0,0-2.956-2.744c-1.031,0-1.533-.434-1.533-1.327a1.443,1.443,0,0,1,1.533-1.327,1.545,1.545,0,0,1,1.441.875.708.708,0,1,0,1.305-.548,2.865,2.865,0,0,0-2.039-1.655v-.5a.707.707,0,1,0-1.415,0v.5a2.789,2.789,0,0,0-2.24,2.654,2.641,2.641,0,0,0,2.948,2.743c1.022,0,1.541.446,1.541,1.328a1.442,1.442,0,0,1-1.532,1.327,1.545,1.545,0,0,1-1.441-.876.708.708,0,0,0-1.305.549,2.867,2.867,0,0,0,2.03,1.654v.5a.707.707,0,0,0,1.415,0Z" transform="translate(-0.701 -0.303)"/><path class="a" d="M55.374,448.912H53.232v-3.028h.242a.707.707,0,0,0,.707-.707v-4.443a.707.707,0,0,0-.707-.707H51.626v-3.734a.708.708,0,0,0-.707-.708H49.682a8.648,8.648,0,1,0-9.456,0H36.032a.709.709,0,0,0-.708.708v4.442a.708.708,0,0,0,.708.707H37.88v3.028h-.242a.707.707,0,0,0-.707.707v4.442a.707.707,0,0,0,.707.708h2.141v3.734a.708.708,0,0,0,.708.707H55.374a.707.707,0,0,0,.707-.707v-4.443A.707.707,0,0,0,55.374,448.912Zm-2.607-7.47v3.028H39.3v-3.028H52.767Zm-15.045-13.09a7.232,7.232,0,1,1,7.233,7.233A7.241,7.241,0,0,1,37.722,428.352Zm-.982,11.675V437H50.211v3.027H36.74Zm1.6,8.885v-3.028H51.817v3.028H38.345Zm16.321,4.441H41.194v-3.027H54.666Z" transform="translate(-0.462 -0.195)"/><g transform="translate(7.62 410.573)"><path class="a" d="M17.068,418.59c-1.032,0-1.532-.434-1.532-1.327a1.442,1.442,0,0,1,1.532-1.328,1.545,1.545,0,0,1,1.441.876.708.708,0,1,0,1.305-.548,2.866,2.866,0,0,0-2.039-1.656v-.5a.707.707,0,0,0-1.415,0v.5a2.787,2.787,0,0,0-2.24,2.654,2.641,2.641,0,0,0,2.948,2.743c1.022,0,1.541.447,1.541,1.328a1.442,1.442,0,0,1-1.533,1.325,1.543,1.543,0,0,1-1.44-.874.708.708,0,1,0-1.305.549,2.865,2.865,0,0,0,2.03,1.653v.5a.707.707,0,1,0,1.415,0v-.5a2.789,2.789,0,0,0,2.248-2.655A2.676,2.676,0,0,0,17.068,418.59Z" transform="translate(-7.794 -410.649)"/><path class="a" d="M26.754,430.92H25.39v-3.738a.707.707,0,0,0-.707-.708H21.621a8.648,8.648,0,1,0-9.455,0H9.8a.708.708,0,0,0-.708.708v4.448a.708.708,0,0,0,.708.707h1.363v3.031H8.327a.707.707,0,0,0-.707.708v4.448a.707.707,0,0,0,.707.707H10.21v3.031H8.846a.708.708,0,0,0-.707.709v4.447a.707.707,0,0,0,.707.709h.241v3.738a.708.708,0,0,0,.708.708H24.683a.707.707,0,0,0,.707-.708v-4.448a.707.707,0,0,0-.707-.708h-.241v-3.031H25.8a.708.708,0,0,0,.707-.707v-4.448a.709.709,0,0,0-.707-.709H23.922v-3.03h2.833a.708.708,0,0,0,.707-.708v-4.447A.707.707,0,0,0,26.754,430.92ZM9.661,419.232a7.233,7.233,0,1,1,7.233,7.241A7.245,7.245,0,0,1,9.661,419.232ZM10.5,430.92v-3.03H23.975v3.03H10.5Zm-1.469,8.894v-3.03H22.507v3.03H9.035Zm.519,8.9v-3.031H23.025v3.031H9.554Zm14.421,4.447H10.5v-3.029H23.975ZM25.1,441.23v3.031H11.626V441.23H25.1Zm.95-5.863H12.575v-3.031H26.047Z" transform="translate(-7.62 -410.573)"/></g></g><rect class="b" width="65" height="65" transform="translate(1145 615)"/></g></svg>