<?xml version="1.0" encoding="utf-8"?>
<svg xmlns="http://www.w3.org/2000/svg" width="65" height="65" viewBox="0 0 65 65"><defs><style>.a{fill:#29a1da;}.b{fill:none;}</style></defs><g transform="translate(-1145 -784)"><g transform="translate(988.367 482.368)"><path class="a" d="M195.754,425.007a.826.826,0,1,0,.826.826A.826.826,0,0,0,195.754,425.007Z" transform="translate(-19.553 -72.087)"/><path class="a" d="M262.605,425.007a.826.826,0,1,0,.827.826A.825.825,0,0,0,262.605,425.007Z" transform="translate(-61.323 -72.087)"/><path class="a" d="M213.34,354.245l-6.382-3.072a2.368,2.368,0,0,1-1.087-1.078l-3.812-7.764a3.875,3.875,0,0,0-3.5-2.181h-5.394V339.9a3.906,3.906,0,0,0-3.9-3.9h-6.592l.01-2.328a3.123,3.123,0,0,0-3.12-3.134h-2.321a3.122,3.122,0,0,0-3.121,3.134l.011,2.328h-6.592a3.906,3.906,0,0,0-3.9,3.9v27.3a2.343,2.343,0,0,0,2.34,2.34h5.054a5.848,5.848,0,0,0,10.347,0H196.11a5.846,5.846,0,0,0,10.346,0h6.312a2.343,2.343,0,0,0,2.34-2.34V357.057A3.138,3.138,0,0,0,213.34,354.245Zm-20.177-12.536h5.394a2.327,2.327,0,0,1,2.1,1.309l3.737,7.608H193.163Zm-17.031-9.152a1.547,1.547,0,0,1,1.106-.46h2.321a1.56,1.56,0,0,1,1.56,1.568l-.01,2.335h-5.421l-.01-2.335A1.551,1.551,0,0,1,176.132,332.557ZM165.192,339.9a2.345,2.345,0,0,1,2.343-2.342h21.726A2.345,2.345,0,0,1,191.6,339.9v24.177H181.374a5.848,5.848,0,0,0-10.347,0h-5.835Zm.781,28.078a.782.782,0,0,1-.781-.781v-1.559h5.274a5.911,5.911,0,0,0,0,2.341ZM176.2,371.1a4.293,4.293,0,1,1,4.291-4.293A4.3,4.3,0,0,1,176.2,371.1Zm5.735-3.122a5.908,5.908,0,0,0,0-2.341h13.612a5.89,5.89,0,0,0,0,2.341Zm19.347,3.122a4.293,4.293,0,1,1,4.293-4.293A4.3,4.3,0,0,1,201.282,371.1Zm12.265-3.9a.782.782,0,0,1-.78.781h-5.751a5.888,5.888,0,0,0,0-2.341h6.531Zm0-3.12h-7.092a5.846,5.846,0,0,0-10.346,0h-2.947V352.186h12.486a3.884,3.884,0,0,0,.633.391l6.382,3.074a1.568,1.568,0,0,1,.884,1.407Z" transform="translate(0 -13.062)"/><path class="a" d="M252.218,394.374H249a.78.78,0,1,0,0,1.559h3.215a.78.78,0,1,0,0-1.559Z" transform="translate(-52.852 -52.947)"/><path class="a" d="M201.688,315.6a.78.78,0,0,0,.78-.779v-4.408a.78.78,0,1,0-1.56,0v4.408A.779.779,0,0,0,201.688,315.6Z" transform="translate(-23.29 0)"/><path class="a" d="M215.541,321.3a.782.782,0,0,0,.532-.208l3.224-3a.78.78,0,0,0-1.063-1.142l-3.226,3a.78.78,0,0,0,.532,1.351Z" transform="translate(-31.945 -4.439)"/><path class="a" d="M181.927,321.091a.78.78,0,0,0,1.063-1.143l-3.226-3a.78.78,0,1,0-1.064,1.142Z" transform="translate(-9.259 -4.439)"/><path class="a" d="M186.472,373.683h2.406v2.408a1.845,1.845,0,0,0,1.842,1.841h1.594a1.845,1.845,0,0,0,1.842-1.841v-2.408h2.406a1.844,1.844,0,0,0,1.842-1.842v-1.593a1.844,1.844,0,0,0-1.842-1.842h-2.406V366a1.845,1.845,0,0,0-1.842-1.843h-1.594A1.845,1.845,0,0,0,188.879,366v2.406h-2.406a1.843,1.843,0,0,0-1.841,1.842v1.593A1.843,1.843,0,0,0,186.472,373.683Zm-.282-3.435a.282.282,0,0,1,.282-.283h3.186a.779.779,0,0,0,.779-.78V366a.283.283,0,0,1,.283-.283h1.594a.283.283,0,0,1,.283.283v3.185a.78.78,0,0,0,.78.78h3.186a.283.283,0,0,1,.283.283v1.593a.282.282,0,0,1-.283.282h-3.186a.78.78,0,0,0-.78.78v3.188a.282.282,0,0,1-.283.281h-1.594a.282.282,0,0,1-.283-.281V372.9a.78.78,0,0,0-.779-.78h-3.186a.281.281,0,0,1-.282-.282Z" transform="translate(-13.12 -34.067)"/></g><rect class="b" width="65" height="65" transform="translate(1145 784)"/></g></svg>