<?xml version="1.0" encoding="utf-8"?>
<svg xmlns="http://www.w3.org/2000/svg" width="65" height="65" viewBox="0 0 65 65"><defs><style>.a{fill:#29a1da;}.b{fill:none;}</style></defs><g transform="translate(-717 -615)"><g transform="translate(126.917 523.202)"><g transform="translate(608.239 109.954)"><path class="a" d="M625.427,141.486a14.344,14.344,0,1,1,14.344-14.344A14.36,14.36,0,0,1,625.427,141.486Zm0-27.094a12.75,12.75,0,1,0,12.75,12.75A12.765,12.765,0,0,0,625.427,114.392Z" transform="translate(-611.083 -112.798)"/></g><g transform="translate(597.083 120.314)"><g transform="translate(6.375 3.188)"><rect class="a" width="3.188" height="1.594"/></g><path class="a" d="M601.067,133.767a3.984,3.984,0,1,1,3.984-3.984A3.989,3.989,0,0,1,601.067,133.767Zm0-6.375a2.391,2.391,0,1,0,2.391,2.391A2.394,2.394,0,0,0,601.067,127.392Z" transform="translate(-597.083 -125.798)"/></g><g transform="translate(638.521 120.314)"><g transform="translate(0 3.188)"><rect class="a" width="3.188" height="1.594"/></g><g transform="translate(1.594)"><path class="a" d="M655.067,133.767a3.984,3.984,0,1,1,3.984-3.984A3.989,3.989,0,0,1,655.067,133.767Zm0-6.375a2.391,2.391,0,1,0,2.391,2.391A2.394,2.394,0,0,0,655.067,127.392Z" transform="translate(-651.083 -125.798)"/></g></g><g transform="translate(618.599 140.236)"><g transform="translate(3.188)"><rect class="a" width="1.594" height="3.188"/></g><g transform="translate(0 1.594)"><path class="a" d="M628.067,160.767a3.984,3.984,0,1,1,3.984-3.984A3.989,3.989,0,0,1,628.067,160.767Zm0-6.375a2.391,2.391,0,1,0,2.391,2.391A2.394,2.394,0,0,0,628.067,154.392Z" transform="translate(-624.083 -152.798)"/></g></g><g transform="translate(618.599 98.798)"><g transform="translate(3.188 7.172)"><rect class="a" width="1.594" height="2.391"/></g><path class="a" d="M628.067,106.767a3.984,3.984,0,1,1,3.984-3.984A3.989,3.989,0,0,1,628.067,106.767Zm0-6.375a2.391,2.391,0,1,0,2.391,2.391A2.394,2.394,0,0,0,628.067,100.392Z" transform="translate(-624.083 -98.798)"/></g><g transform="translate(599.474 135.004)"><g transform="translate(0 2.044)"><path class="a" d="M605.263,157.157a5.18,5.18,0,1,1,5.18-5.18A5.186,5.186,0,0,1,605.263,157.157Zm0-8.766a3.586,3.586,0,1,0,3.586,3.586A3.59,3.59,0,0,0,605.263,148.392Z" transform="translate(-600.083 -146.798)"/></g><g transform="translate(7.639)"><rect class="a" width="5.144" height="1.594" transform="translate(0 3.638) rotate(-45)"/></g></g><g transform="translate(633.289 101.189)"><g transform="translate(2.044)"><path class="a" d="M650.263,112.157a5.18,5.18,0,1,1,5.18-5.18A5.186,5.186,0,0,1,650.263,112.157Zm0-8.766a3.586,3.586,0,1,0,3.586,3.586A3.59,3.59,0,0,0,650.263,103.392Z" transform="translate(-645.083 -101.798)"/></g><g transform="translate(0 7.639)"><rect class="a" width="5.144" height="1.594" transform="translate(0 3.637) rotate(-44.998)"/></g></g><g transform="translate(599.474 101.189)"><path class="a" d="M600.083,106.978a5.18,5.18,0,1,1,5.18,5.18A5.186,5.186,0,0,1,600.083,106.978Zm8.766,0a3.586,3.586,0,1,0-3.586,3.586A3.59,3.59,0,0,0,608.849,106.978Z" transform="translate(-600.083 -101.798)"/><g transform="translate(7.639 7.639)"><rect class="a" width="1.594" height="5.144" transform="translate(0 1.127) rotate(-45)"/></g></g><g transform="translate(633.289 135.005)"><g transform="translate(2.044 2.043)"><path class="a" d="M645.083,151.978a5.18,5.18,0,1,1,5.18,5.18A5.186,5.186,0,0,1,645.083,151.978Zm8.766,0a3.586,3.586,0,1,0-3.586,3.586A3.59,3.59,0,0,0,653.849,151.978Z" transform="translate(-645.083 -146.798)"/></g><rect class="a" width="1.594" height="5.144" transform="translate(0 1.127) rotate(-44.998)"/></g><g transform="translate(619.381 118.585)"><g transform="translate(0 1.594)"><path class="a" d="M628.95,133.6h-1.295a2.908,2.908,0,0,1-2.505-1.635.8.8,0,0,1,1.426-.713,1.312,1.312,0,0,0,1.092.755h1.282a.8.8,0,0,0,0-1.594h-1.395a2.391,2.391,0,0,1,0-4.781h1.295a2.911,2.911,0,0,1,2.506,1.636.8.8,0,0,1-1.426.713,1.316,1.316,0,0,0-1.093-.755h-1.283a.8.8,0,0,0,0,1.594h1.395a2.391,2.391,0,0,1,0,4.781Z" transform="translate(-625.065 -125.629)"/></g><g transform="translate(2.39)"><path class="a" d="M628.862,126.816a.8.8,0,0,1-.8-.8v-1.594a.8.8,0,1,1,1.594,0v1.594A.8.8,0,0,1,628.862,126.816Z" transform="translate(-628.065 -123.629)"/></g><g transform="translate(2.39 7.969)"><path class="a" d="M628.862,136.816a.8.8,0,0,1-.8-.8v-1.594a.8.8,0,1,1,1.594,0v1.594A.8.8,0,0,1,628.862,136.816Z" transform="translate(-628.065 -133.629)"/></g></g></g><rect class="b" width="65" height="65" transform="translate(717 615)"/></g></svg>