<?xml version="1.0" encoding="utf-8"?>
<svg xmlns="http://www.w3.org/2000/svg" width="65" height="65" viewBox="0 0 65 65"><defs><style>.a{fill:#29a1da;}.b{fill:none;}</style></defs><g transform="translate(-717 -784)"><path class="a" d="M77.857,333.513l-8.294-8.295,9.2-9.2.772.772a.945.945,0,0,0,1.223.1l5.108-3.666a.95.95,0,0,0,.117-1.441l-2.164-2.162-2.164-2.164a.927.927,0,0,0-.747-.274.948.948,0,0,0-.694.39l-3.666,5.109a.949.949,0,0,0,.1,1.223l.772.772-9.2,9.2L59.947,315.6a8.2,8.2,0,0,0-2.293-7.27,8.309,8.309,0,0,0-8.633-1.934.948.948,0,0,0-.351,1.564l5.1,5.1a5.116,5.116,0,0,1-3.08,3.081l-5.1-5.1a.948.948,0,0,0-1.564.351,8.3,8.3,0,0,0,1.933,8.633,8.2,8.2,0,0,0,7.269,2.293L61.5,330.6l-3.067,3.065-1.543-1.543a2.209,2.209,0,0,0-3.117,0l-8.323,8.325a5.027,5.027,0,0,0,0,7.112l.434.433a5.026,5.026,0,0,0,7.111,0l8.323-8.323a2.206,2.206,0,0,0,0-3.117L59.777,335l3.067-3.067,8.294,8.3a8.271,8.271,0,1,0,6.718-6.719ZM81.1,309.589l2.747,2.748L80.3,314.881l-1.745-1.746ZM59.981,338.323l-8.323,8.323a3.2,3.2,0,0,1-4.429,0h0l-.433-.434a3.13,3.13,0,0,1,0-4.429l8.323-8.323a.307.307,0,0,1,.434,0l4.429,4.43A.308.308,0,0,1,59.981,338.323Zm23.806,7.837a6.369,6.369,0,0,1-10.694-6.014.946.946,0,0,0-.25-.893L54.207,320.616a.951.951,0,0,0-.67-.276.923.923,0,0,0-.223.026,6.353,6.353,0,0,1-7.846-6.762l4.283,4.284a.948.948,0,0,0,.9.248,7.005,7.005,0,0,0,5.111-5.111.945.945,0,0,0-.249-.9l-4.283-4.282a6.353,6.353,0,0,1,6.762,7.843.953.953,0,0,0,.252.9l18.635,18.634a.944.944,0,0,0,.893.252,6.368,6.368,0,0,1,6.015,10.692Z" transform="translate(684.454 489.08)"/><rect class="b" width="65" height="65" transform="translate(717 784)"/></g></svg>