<?xml version="1.0" encoding="utf-8"?>
<svg xmlns="http://www.w3.org/2000/svg" width="13.993" height="15.124" viewBox="0 0 13.993 15.124"><defs><style>.a{fill:#2a2b2e;stroke:#2a2b2e;stroke-width:0.5px;}</style></defs><path class="a" d="M19.006,7.274a.144.144,0,0,1-.144.144H11.454a.144.144,0,1,1,0-.287h7.409A.144.144,0,0,1,19.006,7.274Zm-.144,1.5H11.454a.144.144,0,0,0,0,.287h7.409a.144.144,0,0,0,0-.287Zm0,1.647H11.454a.144.144,0,1,0,0,.287h7.409a.144.144,0,0,0,0-.287Zm-2.47,1.646H11.454a.144.144,0,0,0,0,.287h4.939a.144.144,0,0,0,0-.287ZM20.715,4.5V16.885A1.376,1.376,0,0,1,19.34,18.26H8.6a1.382,1.382,0,0,1-1.374-1.385V12.846a.144.144,0,0,1,.144-.144H9.684V4.5a.862.862,0,0,1,.86-.86h9.312a.861.861,0,0,1,.86.86ZM8.6,17.974a1.094,1.094,0,0,0,1.088-1.1V12.99H7.509v3.885a1.094,1.094,0,0,0,1.088,1.1Zm11.832-1.088V4.5a.574.574,0,0,0-.574-.574H10.543A.575.575,0,0,0,9.97,4.5v8.347s0,0,0,0,0,0,0,0v4.026a1.387,1.387,0,0,1-.54,1.1H19.34a1.089,1.089,0,0,0,1.088-1.088Z" transform="translate(-6.972 -3.386)"/></svg>