<?xml version="1.0" encoding="utf-8"?>
<svg xmlns="http://www.w3.org/2000/svg" width="11.639" height="13.154" viewBox="0 0 11.639 13.154"><defs><style>.a{fill:#2a2b2e;stroke:#2a2b2e;stroke-width:0.5px;}</style></defs><path class="a" d="M21.382,15.4a4.054,4.054,0,1,0-5.174,0,5.845,5.845,0,0,0-2.982,5.214.267.267,0,1,0,.534,0,5.276,5.276,0,0,1,2.95-4.862,4.015,4.015,0,0,0,4.168,0,5.266,5.266,0,0,1,2.954,4.86.267.267,0,1,0,.534,0A5.836,5.836,0,0,0,21.382,15.4Zm-2.587.4a3.521,3.521,0,1,1,3.521-3.521A3.525,3.525,0,0,1,18.8,15.8Z" transform="translate(-12.976 -7.976)"/></svg>