<?xml version="1.0" encoding="utf-8"?>
<svg xmlns="http://www.w3.org/2000/svg" width="17.488" height="17.488" viewBox="0 0 17.488 17.488"><path d="M17.076,8.332a8.744,8.744,0,1,0,8.744,8.744A8.744,8.744,0,0,0,17.076,8.332Zm0,16.614c-.692,0-1.585-1.289-2.13-3.5h4.26c-.546,2.208-1.439,3.5-2.13,3.5Zm-2.317-4.372a19.054,19.054,0,0,1-.3-3.06h5.229a19.136,19.136,0,0,1-.3,3.06Zm-5.53-3.061h4.359a20.141,20.141,0,0,0,.284,3.061H10.037a7.807,7.807,0,0,1-.808-3.061Zm7.847-8.306c.692,0,1.585,1.289,2.13,3.5H14.946c.545-2.208,1.438-3.5,2.13-3.5Zm2.317,4.372a19.054,19.054,0,0,1,.3,3.06H14.462a19.136,19.136,0,0,1,.3-3.06Zm-5.806,3.061H9.229a7.806,7.806,0,0,1,.808-3.061h3.835a20.143,20.143,0,0,0-.284,3.061Zm6.978.874h4.359a7.8,7.8,0,0,1-.808,3.06H20.281a20.122,20.122,0,0,0,.284-3.06Zm0-.874a20.141,20.141,0,0,0-.284-3.061h3.835a7.8,7.8,0,0,1,.808,3.06Zm3.05-3.935H20.1a9.268,9.268,0,0,0-1.358-3.316A7.888,7.888,0,0,1,23.615,12.7ZM15.409,9.389A9.247,9.247,0,0,0,14.051,12.7H10.537a7.888,7.888,0,0,1,4.872-3.316ZM10.537,21.448H14.05a9.268,9.268,0,0,0,1.358,3.316,7.888,7.888,0,0,1-4.872-3.316Zm8.206,3.316A9.247,9.247,0,0,0,20.1,21.448h3.513a7.888,7.888,0,0,1-4.872,3.316Z" transform="translate(-8.332 -8.332)"/></svg>