<?xml version="1.0" encoding="utf-8"?>
<svg xmlns="http://www.w3.org/2000/svg" width="15.5" height="15.5" viewBox="0 0 15.5 15.5"><defs><style>.a{fill:#2a2b2e;}</style></defs><path class="a" d="M14.75,7a7.75,7.75,0,1,0,7.75,7.75A7.759,7.759,0,0,0,14.75,7Zm0,1.081A6.669,6.669,0,1,1,8.081,14.75,6.661,6.661,0,0,1,14.75,8.081Zm0,1.622A3.093,3.093,0,0,0,11.7,11.911a.541.541,0,1,0,1.048.265,2.1,2.1,0,0,1,2-1.391,2.291,2.291,0,0,1,1.4.484,1.444,1.444,0,0,1,.586,1.138,1.561,1.561,0,0,1-.282,1.064,3.7,3.7,0,0,1-.755.608,3.237,3.237,0,0,0-1.025,1.11,4.713,4.713,0,0,0-.462,2.264.541.541,0,0,0,1.081,0,3.645,3.645,0,0,1,.332-1.752,2.072,2.072,0,0,1,.7-.738,4.082,4.082,0,0,0,.98-.828,2.751,2.751,0,0,0,.507-1.729,2.561,2.561,0,0,0-.991-1.977A3.31,3.31,0,0,0,14.75,9.7Zm.006,8.651a.721.721,0,1,0,.721.721A.725.725,0,0,0,14.756,18.355Z" transform="translate(-7 -7)"/></svg>