<?xml version="1.0" encoding="utf-8"?>
<svg xmlns="http://www.w3.org/2000/svg" width="12.278" height="12.901" viewBox="0 0 12.278 12.901"><defs><style>.a{fill:#2a2b2e;stroke:#ebebeb;stroke-linecap:square;stroke-linejoin:round;stroke-width:0.25px;}</style></defs><g transform="translate(-4.617 -2.315)"><path class="a" d="M5.529,6.025l.548-.261,1.314-.624,1.584-.754,1.375-.654a.914.914,0,0,1,.7-.065l1.308.615,1.582.743,1.368.644c.222.1-.169.1-.151.108H6.612c-1.047,0-1.632,1.038-1.352,1.038H15.8c.143,0,.287,0,.43,0h.018A.526.526,0,0,0,16.77,6.3c0-.253,0-.5,0-.758a.512.512,0,0,0-.257-.448l-.551-.26-1.321-.622-1.594-.749q-.683-.324-1.367-.644c-.214-.1-.427-.2-.643-.3l0,0h0a.562.562,0,0,0-.262-.072.629.629,0,0,0-.262.072s-.006,0-.01.005l-.075.035-.347.165-1.243.592-1.582.753-1.427.679c-.26.124-.519.248-.78.371L5,5.129a.524.524,0,0,0-.239.31.536.536,0,0,0,.052.4.525.525,0,0,0,.31.239.591.591,0,0,0,.4-.053Z" transform="translate(0)"/><path class="a" d="M21,78.794H12.115c-.121,0-.24,0-.361,0h-.016a.519.519,0,0,0,0,1.038h8.889c.121,0,.24,0,.361,0H21a.519.519,0,0,0,0-1.038Z" transform="translate(-5.617 -66.206)"/><path class="a" d="M5.887,90.848H16.268c.14,0,.281,0,.422,0h.018a.519.519,0,1,0,0-1.038H6.327c-.14,0-.281,0-.422,0H5.887a.519.519,0,1,0,0,1.038Z" transform="translate(-0.544 -75.758)"/><path class="a" d="M19.121,40.008v3.625a.519.519,0,0,0,1.038,0V40.008a.519.519,0,1,0-1.038,0Z" transform="translate(-12.469 -32.125)"/><path class="a" d="M47.124,43.625V40a.519.519,0,0,0-1.038,0v3.625a.519.519,0,1,0,1.038,0Z" transform="translate(-35.85 -32.118)"/><path class="a" d="M73.047,40.008v3.625a.519.519,0,0,0,1.038,0V40.008a.519.519,0,1,0-1.038,0Z" transform="translate(-59.228 -32.125)"/></g></svg>