<?xml version="1.0" encoding="utf-8"?>
<svg xmlns="http://www.w3.org/2000/svg" width="11.275" height="14.443" viewBox="0 0 11.275 14.443"><defs><style>.a{fill:#0092d3;}</style></defs><g transform="translate(-17.188 -7.918)"><path class="a" d="M22.915,7.918a3.609,3.609,0,0,0-3.579,3.615v1.127h-.358a1.8,1.8,0,0,0-1.79,1.79v6.121a1.8,1.8,0,0,0,1.79,1.79h7.7a1.8,1.8,0,0,0,1.79-1.79V14.45a1.8,1.8,0,0,0-1.79-1.79h-.179V11.533a3.608,3.608,0,0,0-3.579-3.615Zm-2.863,3.615a2.864,2.864,0,1,1,5.727,0V12.66H20.052Zm6.621,1.843a1.077,1.077,0,0,1,1.074,1.074V20.57a1.077,1.077,0,0,1-1.074,1.074h-7.7A1.077,1.077,0,0,1,17.9,20.57V14.45a1.077,1.077,0,0,1,1.074-1.074Z"/><path class="a" d="M48.276,64.4a.359.359,0,0,0,.358-.358V62.964a.358.358,0,0,0-.715,0v1.074A.359.359,0,0,0,48.276,64.4Z" transform="translate(-25.45 -45.292)"/></g></svg>