<?xml version="1.0" encoding="utf-8"?>
<!-- Generator: Adobe Illustrator 25.4.1, SVG Export Plug-In . SVG Version: 6.00 Build 0)  -->
<svg version="1.1" id="Layer_1" xmlns="http://www.w3.org/2000/svg" xmlns:xlink="http://www.w3.org/1999/xlink" x="0px" y="0px"
	 viewBox="0 0 309.7 310.5" style="enable-background:new 0 0 309.7 310.5;" xml:space="preserve">
<style type="text/css">
	.st0{fill:#2B2C2E;}
</style>
<g id="surface1">
	<path class="st0" d="M219.9,126.6l-65.8-55.4c-2.4-2-5.8-2-8.2,0l-66.3,55.8c-2.7,2.3-3,6.3-0.8,9c1.2,1.4,3,2.3,4.9,2.3h9.7v73.9
		c0,8.4,6.8,15.3,15.3,15.3l0,0h21.6v-43.3c0-2.8,2.3-5.1,5.1-5.1h29.2c2.8,0,5.1,2.3,5.1,5.1v43.3h21.6c8.4,0,15.3-6.8,15.3-15.3
		c0,0,0,0,0,0v-73.9h9.7c3.5,0,6.3-2.9,6.3-6.4C222.6,129.7,221.6,127.7,219.9,126.6z"/>
	<path class="st0" d="M154.8,310.5C69.5,310.5,0,241,0,155.6S69.5,0.8,154.8,0.8s154.8,69.4,154.8,154.8S240.2,310.5,154.8,310.5z
		 M154.8,16.1c-76.9,0-139.6,62.6-139.6,139.6s62.6,139.6,139.6,139.6s139.6-62.6,139.6-139.6S231.8,16.1,154.8,16.1z"/>
</g>
</svg>
